<?xml version="1.0" encoding="UTF-8"?>
<!DOCTYPE svg PUBLIC "-//W3C//DTD SVG 1.1//EN" "http://www.w3.org/Graphics/SVG/1.1/DTD/svg11.dtd">
<!-- Creator: CorelDRAW -->
<svg xmlns="http://www.w3.org/2000/svg" xml:space="preserve" width="91mm" height="51mm" version="1.1" style="shape-rendering:geometricPrecision; text-rendering:geometricPrecision; image-rendering:optimizeQuality; fill-rule:evenodd; clip-rule:evenodd"
viewBox="0 0 9100 5100"
 xmlns:xlink="http://www.w3.org/1999/xlink"
 xmlns:xodm="http://www.corel.com/coreldraw/odm/2003">
 <defs>
  <style type="text/css">
   <![CDATA[
    .fil0 {fill:#31B8D2;fill-rule:nonzero}
   ]]>
  </style>
 </defs>
 <g id="Camada_x0020_1">
  <metadata id="CorelCorpID_0Corel-Layer"/>
  <path class="fil0" d="M3354.54 3099.39l-197.9 514.32 84.85 0 55.25 -144.68 192.07 0 55.25 144.68 85.61 0 -198.66 -514.32 -76.34 0 -0.13 0zm1489.34 -1605.18c48.52,0 87.77,-39.25 87.77,-87.78 0,-48.52 -39.25,-87.77 -87.77,-87.77 -48.52,0 -87.77,39.25 -87.77,87.77 0,48.53 39.25,87.78 87.77,87.78zm500.34 282.62c-493.98,-464.39 -727.58,35.32 -1113.22,-277.79 -12.07,-12.07 -28.71,-19.44 -47,-19.44 -36.71,0 -66.56,29.73 -66.56,66.56 0,25.03 13.72,46.75 34.17,58.05 162.08,132.23 294.31,150.91 419.68,138.46 -3.82,7.37 -7.5,14.86 -11.18,21.97 -69.86,135.28 -242.99,463.76 -408.38,724.79 -33.15,52.33 -74.56,80.4 -126.64,86.12 -78.12,8.51 -183.17,-30.86 -303.58,-113.81 -48.65,-33.54 -90.83,-68.21 -121.06,-94.63 -28.07,-24.51 -70.24,-23.25 -96.66,2.92l0 0c-29.21,29.09 -27.69,76.72 3.18,103.9 33.02,28.84 78.63,66.31 131.85,103.14 135.78,94 258.24,141.51 364.68,141.51 12.45,0 24.77,-0.63 36.71,-1.91 46.23,-5.08 89.04,-19.81 127.02,-43.95 40.26,-25.53 75.32,-61.6 104.28,-107.33 161.95,-255.7 398.09,-698.37 478.5,-853.08l3.3 -0.51c142.01,-25.66 291.77,-32.9 499.58,160.05 12.2,15.75 31.25,25.91 52.72,25.91 36.7,0 66.55,-29.72 66.55,-66.56 0,-22.48 -11.05,-42.3 -28.07,-54.36l0.13 -0.01zm-636.38 163.48c-19.06,36.71 -38.11,73.42 -57.29,109.88 59.19,45.6 97.43,117.24 97.43,197.77 0,137.82 -111.78,249.6 -249.6,249.6 -17.79,0 -35.19,-1.9 -51.95,-5.46 -6.61,-2.42 -13.72,-3.81 -21.22,-3.81 -33.91,0 -61.48,27.56 -61.48,61.48 0,28.96 19.94,53.09 46.87,59.7l0.01 0c28.2,6.98 57.54,10.67 87.9,10.67 205.65,0 372.3,-166.65 372.3,-372.3 0,-127.92 -64.53,-240.71 -162.72,-307.78l-0.25 0.25zm560.42 134.14c10.55,4.82 22.11,-4.45 32.52,-0.76 9.66,3.3 18.04,9.78 28.58,10.41 13.59,1.28 30.86,0.77 37.47,-10.03 5.72,-10.03 9.02,-33.53 -0.63,-41.41 -9.53,-6.73 -25.41,-2.54 -37.6,-4.06 -10.8,-0.51 -21.47,-6.48 -31.51,-1.15l-0.76 0.51c-5.72,3.56 -10.03,9.27 -16.13,11.05 -6.35,2.29 -14.36,0.51 -20.07,4.45 -9.91,8.51 -1.9,26.55 8.13,30.99l0 0zm99.97 37.34c-9.91,-9.15 -28.71,-6.73 -42.56,-10.16 -12.32,-2.16 -23.62,-10.55 -35.95,-5.98l-1.01 0.38c-6.99,3.18 -12.83,9.15 -20.07,10.42 -7.62,1.78 -16.52,-1.52 -23.76,2.16 -12.57,8.38 -6.09,30.23 4.83,36.71 11.43,7.11 25.91,-1.78 37.35,3.94 10.54,5.08 19.3,13.84 31.24,16.13 15.37,3.42 35.31,5.33 44.46,-6.1 8,-10.67 15.24,-37.22 5.21,-47.5l0.26 0zm-54.49 73.17c-13.08,-4.96 -23.88,-16.52 -38.36,-14.1l-1.14 0.25c-8.39,2.03 -16.01,7.37 -24.27,7.24 -8.76,0.38 -17.91,-5.21 -26.55,-2.54 -15.62,6.61 -12.95,32.01 -2.28,41.54 11.05,10.28 28.96,3.42 40.39,12.07 10.55,7.87 18.3,19.3 31.12,24.26 16.26,6.98 37.86,13.34 50.31,2.67 11.05,-10.04 24.51,-37.73 15.75,-51.32 -9.02,-12.07 -30.23,-13.33 -44.84,-20.07l-0.13 0zm-28.2 89.3c-14.23,-8.26 -24.64,-23.76 -41.92,-23.5l-1.4 0c-10.16,0.88 -19.94,5.58 -29.59,3.93 -10.17,-1.27 -19.82,-9.4 -30.36,-8 -19.44,4.7 -21.09,34.68 -10.55,47.76 10.93,13.97 33.03,9.4 44.59,21.59 10.8,11.18 17.66,25.79 31.5,34.05 17.53,11.17 41.41,22.61 57.93,12.57 14.73,-9.53 35.56,-39.25 27.94,-56.65 -8.26,-15.75 -32.64,-21.22 -48.14,-31.76l0 0.01zm-41.66 101.1c-14.99,-11.68 -24.27,-30.99 -43.96,-33.53l-1.52 0c-11.69,-0.89 -23.63,2.92 -34.3,-0.51 -11.43,-3.05 -21.08,-13.85 -33.28,-13.97 -22.87,2.28 -29.6,36.2 -19.69,52.71 10.29,17.66 36.08,16.01 47.38,31.88 10.55,14.48 16.01,32.27 30.36,43.96 18.17,15.62 43.57,32.39 64.02,23.62 18.29,-8.51 46.87,-39 40.91,-60.08 -6.86,-19.31 -33.79,-29.47 -49.8,-43.95l-0.12 -0.13zm-56.91 108.61c-17.53,-13.85 -28.58,-36.46 -51.7,-39.51l-1.9 0.01c-13.73,-1.02 -27.82,3.42 -40.27,-0.64 -13.47,-3.68 -24.77,-16.26 -39.12,-16.38 -26.93,2.67 -34.81,42.55 -23.12,61.98 12.07,20.84 42.43,18.8 55.64,37.48 12.45,16.89 18.8,37.85 35.69,51.57 21.34,18.29 51.2,37.98 75.2,27.69 21.46,-10.04 55.13,-45.86 48.14,-70.63 -8,-22.61 -39.75,-34.55 -58.55,-51.7l-0.01 0.13zm-74.69 120.93c-13.97,-14.87 -20.71,-36.84 -41.16,-42.68l-1.65 -0.38c-12.32,-2.67 -25.66,-0.51 -36.33,-5.98 -11.56,-5.08 -20.06,-18.03 -33.15,-20.19 -24.64,-1.28 -37.22,33.53 -29.47,52.71 8,20.45 35.69,22.87 45.1,41.41 8.89,17.02 11.68,36.83 25.15,51.57 16.77,19.43 40.9,41.41 64.02,35.31 20.83,-6.1 56.01,-33.79 53.09,-57.04 -4.06,-21.59 -31.12,-36.7 -45.72,-54.74l0.12 0.01zm-121.18 52.32l-1.4 -0.5c-10.29,-3.56 -22.1,-3.18 -30.74,-9.03 -9.52,-5.71 -15.5,-17.78 -26.55,-20.96 -21.21,-3.81 -35.82,25.03 -31.12,42.56 4.7,18.54 28.46,23.5 34.55,40.65 5.85,15.62 6.23,33.02 16.26,47.25 12.45,18.67 31,40.14 51.7,37.35 18.68,-3.05 52.08,-23.25 52.08,-43.7 -1.27,-19.05 -22.99,-35.06 -33.78,-52.2 -10.55,-14.36 -14.1,-34.05 -31.12,-41.29l0.12 -0.13zm-82.31 72.54l-1.15 -0.64c-8.76,-4.06 -19.18,-4.7 -26.29,-10.54 -7.87,-5.84 -12.07,-17.02 -21.46,-20.83 -18.3,-5.21 -33.66,18.92 -31,34.68 2.54,16.76 22.99,23.24 26.93,38.74 3.81,14.22 2.67,29.6 10.29,43.06 9.27,17.52 23.88,37.98 42.3,37.34 16.64,-1.14 47.89,-16 49.54,-34.04 0.51,-16.89 -17.28,-32.9 -25.28,-48.9 -8,-13.59 -9.4,-31.12 -23.75,-39.12l-0.13 0.25zm-77.99 62.11l-0.89 -0.63c-6.99,-4.2 -15.5,-5.59 -20.96,-11.06 -5.97,-5.46 -8.51,-15.11 -16.01,-19.18 -14.73,-5.84 -29.6,12.83 -28.83,26.17 0.63,14.1 17.02,21.34 19.05,34.55 1.91,12.2 -0.38,24.9 4.83,36.58 6.22,15.37 16.51,33.66 31.88,34.81 13.97,0.51 41.16,-9.15 44.21,-23.88 1.9,-13.97 -11.43,-28.83 -16.64,-42.8 -5.47,-11.94 -5.08,-26.68 -16.39,-34.56l-0.25 0zm-69.61 51.82l-0.76 -0.5c-5.85,-3.94 -13.22,-5.59 -17.66,-10.68 -4.96,-5.08 -6.73,-13.59 -12.96,-17.4 -12.57,-5.84 -26.42,9.65 -26.29,21.34 0,12.32 13.84,19.31 14.86,30.99 1.02,10.68 -1.53,21.6 2.29,32.14 4.7,13.59 12.7,30.11 26.03,31.76 12.07,1.14 36.21,-5.84 39.64,-18.67 2.41,-12.07 -8.52,-25.66 -12.45,-38.11 -4.19,-10.67 -3.18,-23.5 -12.58,-30.87l-0.12 0zm-66.18 39.51l-0.51 -0.51c-4.32,-4.06 -10.16,-6.47 -13.08,-11.17 -3.43,-4.83 -3.68,-12.07 -8.38,-16.14 -9.53,-6.47 -23.12,4.45 -24.65,13.97 -1.77,10.17 8.77,17.79 8.01,27.57 -0.64,9.02 -4.19,17.52 -2.42,26.67 2.03,11.82 6.35,26.55 17.02,29.72 9.78,2.54 30.61,0 35.19,-9.91 3.55,-9.65 -3.56,-22.22 -5.08,-33.02 -2.03,-9.4 0.63,-19.82 -6.1,-27.06l0 -0.12zm-1104.84 -917.23c-10.54,-4.83 -22.1,4.44 -32.52,0.76 -9.65,-3.3 -18.03,-9.78 -28.58,-10.42 -13.59,-1.27 -30.86,-0.76 -37.47,10.04 -5.71,10.03 -9.02,33.53 0.64,41.41 9.52,6.73 25.4,2.54 37.6,4.06 10.8,0.51 21.46,6.48 31.5,1.14l0.76 -0.5c5.72,-3.56 10.04,-9.27 16.14,-11.06 6.35,-2.28 14.35,-0.5 20.06,-4.44 9.91,-8.51 1.91,-26.55 -8.12,-31l-0.01 0.01zm18.42 -70.88c-11.43,-7.12 -25.92,1.78 -37.35,-3.94 -10.54,-5.08 -19.31,-13.84 -31.25,-16.13 -15.37,-3.43 -35.31,-5.33 -44.45,6.1 -8.01,10.67 -15.25,37.22 -5.21,47.5 9.91,9.15 28.71,6.73 42.55,10.17 12.32,2.16 23.63,10.54 35.95,5.97l1.02 -0.38c6.98,-3.17 12.83,-9.15 20.07,-10.42 7.62,-1.77 16.51,1.53 23.75,-2.16 12.57,-8.38 6.1,-30.23 -4.82,-36.71l-0.26 0zm-11.69 -84.09c-10.54,-7.87 -18.29,-19.31 -31.12,-24.26 -16.26,-6.99 -37.85,-13.34 -50.3,-2.67 -11.05,10.03 -24.51,37.72 -15.75,51.32 9.02,12.07 30.23,13.33 44.84,20.06 13.08,4.96 23.88,16.52 38.36,14.1l1.14 -0.25c8.38,-2.03 16,-7.37 24.26,-7.24 8.77,-0.38 17.91,5.21 26.55,2.54 15.62,-6.61 12.96,-32.01 2.42,-41.54 -11.06,-10.29 -28.97,-3.43 -40.4,-12.07l0 0.01zm45.1 -86.63c-10.8,-11.18 -17.66,-25.78 -31.51,-34.04 -17.53,-11.18 -41.4,-22.61 -57.92,-12.58 -14.73,9.53 -35.56,39.26 -27.95,56.66 8.26,15.75 32.65,21.21 48.15,31.75 14.22,8.26 24.64,23.76 41.91,23.5l1.4 0c10.16,-0.89 19.94,-5.59 29.6,-3.93 10.16,1.27 19.82,9.4 30.36,8 19.43,-4.7 21.08,-34.68 10.54,-47.76 -10.92,-13.97 -33.02,-9.4 -44.58,-21.59l0 -0.01zm58.04 -95.9c-10.54,-14.48 -16,-32.26 -30.36,-43.95 -18.16,-15.62 -43.57,-32.39 -64.02,-23.63 -18.29,8.51 -46.87,39 -40.9,60.09 6.86,19.3 33.79,29.46 49.79,43.95 14.99,11.68 24.27,30.99 43.96,33.53l1.52 0c11.69,0.89 23.63,-2.92 34.3,0.51 11.43,3.05 21.08,13.85 33.28,13.97 22.87,-2.28 29.6,-36.2 19.69,-52.71 -10.29,-17.66 -36.08,-16.01 -47.38,-31.89l0.12 0.13zm71.9 -114.95c-12.45,-16.9 -18.8,-37.86 -35.7,-51.57 -21.34,-18.29 -51.19,-37.98 -75.19,-27.69 -21.47,10.03 -55.13,45.85 -48.15,70.62 8.01,22.61 39.76,34.55 58.56,51.7 17.53,13.85 28.58,36.46 51.7,39.51l1.9 -0.01c13.73,1.02 27.82,-3.43 40.27,0.63 13.47,3.68 24.77,16.26 39.12,16.39 26.93,-2.67 34.81,-42.56 23.12,-61.99 -12.07,-20.83 -42.43,-18.8 -55.64,-37.47l0.01 -0.12zm70.88 -102.89c-8.9,-17.02 -11.69,-36.84 -25.16,-51.57 -16.77,-19.44 -40.9,-41.41 -64.02,-35.31 -20.83,6.09 -56.01,33.78 -53.09,57.03 4.06,21.59 31.12,36.71 45.72,54.75 13.98,14.86 20.71,36.83 41.16,42.68l1.65 0.38c12.32,2.67 25.66,0.51 36.33,5.97 11.56,5.08 20.07,18.04 33.16,20.2 24.64,1.27 37.21,-33.54 29.46,-52.72 -8,-20.45 -35.69,-22.86 -45.09,-41.4l-0.12 -0.01zm79.64 -80.02c-5.84,-15.63 -6.22,-33.03 -16.26,-47.26 -12.45,-18.67 -30.99,-40.14 -51.7,-37.35 -18.67,3.05 -52.08,23.25 -52.08,43.7 1.27,19.06 22.99,35.06 33.79,52.21 10.54,14.35 14.1,34.04 31.12,41.28l1.4 0.51c10.28,3.56 22.1,3.17 30.74,9.02 9.52,5.72 15.49,17.78 26.54,20.96 21.22,3.81 35.82,-25.02 31.12,-42.56 -4.7,-18.54 -28.45,-23.62 -34.55,-40.64l-0.12 0.13zm80.28 -61.48c-3.82,-14.23 -2.67,-29.6 -10.29,-43.06 -9.27,-17.53 -23.88,-37.98 -42.3,-37.35 -16.64,1.14 -47.89,16.01 -49.54,34.04 -0.51,16.9 17.27,32.9 25.27,48.91 8.01,13.59 9.4,31.11 23.76,39.12l1.14 0.63c8.77,4.07 19.18,4.7 26.3,10.54 7.87,5.85 12.07,17.02 21.46,20.83 18.29,5.21 33.66,-18.92 30.99,-34.67 -2.54,-16.77 -22.99,-23.25 -26.92,-38.74l0.13 -0.25zm67.95 -87.14c-6.22,-15.37 -16.51,-33.66 -31.88,-34.81 -13.97,-0.51 -41.16,9.14 -44.21,23.88 -1.9,13.97 11.43,28.83 16.64,42.8 5.47,11.94 5.08,26.68 16.39,34.55l0.89 0.64c6.98,4.19 15.49,5.59 20.96,11.05 5.97,5.46 8.51,15.12 16,19.18 14.74,5.84 29.6,-12.83 28.84,-26.17 -0.64,-14.1 -17.02,-21.33 -19.06,-34.55 -1.9,-12.19 0.38,-24.89 -4.7,-36.58l0.13 0.01zm67.2 -41.03c-4.7,-13.59 -12.7,-30.11 -26.04,-31.76 -12.07,-1.14 -36.2,5.84 -39.63,18.67 -2.42,12.07 8.51,25.66 12.45,38.11 4.19,10.67 3.17,23.5 12.57,30.86l0.76 0.51c5.85,3.94 13.22,5.59 17.66,10.68 4.96,5.07 6.73,13.59 12.96,17.4 12.57,5.84 26.42,-9.66 26.29,-21.34 0,-12.32 -13.84,-19.31 -14.86,-31 -1.02,-10.67 1.53,-21.59 -2.28,-32.13l0.12 0zm64.14 2.67c0.64,-9.02 4.2,-17.53 2.42,-26.68 -2.03,-11.81 -6.35,-26.55 -17.02,-29.72 -9.78,-2.54 -30.61,0 -35.19,9.91 -3.55,9.65 3.56,22.23 5.08,33.03 2.03,9.4 -0.63,19.81 6.1,27.05l0.51 0.51c4.32,4.07 10.16,6.48 13.08,11.18 3.43,4.82 3.68,12.07 8.38,16.13 9.53,6.48 23.12,-4.45 24.65,-13.97 1.77,-10.17 -8.77,-17.78 -8.01,-27.56l0 0.12zm-874.42 2247.28l65.42 -169.83 64.91 169.83 -130.33 0zm629.53 -45.73c-27.82,-16 -69.36,-24.9 -99.59,-31.37 -6.73,-1.4 -12.44,-2.67 -17.4,-3.81 -72.66,-15.76 -98.32,-34.56 -98.32,-71.65 0,-22.61 15.63,-43.82 40.65,-55.38 39,-18.17 105.56,-17.27 175.04,40.14l6.35 5.33 50.43 -60.97 -6.35 -5.33c-41.41,-34.3 -88.41,-56.65 -136.04,-64.65 -44.21,-7.37 -86.76,-2.03 -123.09,15.36 -25.02,11.82 -46.49,28.84 -61.85,49.41l-0.26 0.38c-16.01,23.63 -24.51,50.18 -24.51,76.6 0,49.15 23.62,89.29 68.46,116.22 32.52,18.8 109.87,34.81 117.37,35.95 71.65,13.84 103.53,36.46 103.53,73.67 0,37.22 -28.07,56.78 -44.84,64.53 -25.79,11.94 -58.18,14.36 -91.33,7.12 -39.51,-8.01 -79.52,-28.84 -115.72,-60.34l-6.22 -5.33 -52.21 59.31 6.35 5.47c46.24,39.75 98.7,66.56 151.92,77.35 18.67,3.94 35.57,5.72 51.95,5.72 35.7,0 62.88,-5.72 88.28,-18.29 29.35,-14.61 51.32,-32.26 65.3,-52.33 16.77,-24.01 25.27,-51.95 25.27,-83.08 0,-51.7 -25.4,-93.23 -73.42,-119.78l0.25 -0.25zm-912.79 128.93l-252.9 -374.72 -81.17 0 0 514.32 79.52 0 0 -374.85 251.12 371.16 2.42 3.68 80.53 0.01 0 -514.32 -79.52 0 0 374.72zm-666.36 -390.09c-147.98,0 -268.39,120.67 -268.39,269.04 0,148.36 120.42,267.63 268.39,267.63 147.98,0 269.04,-120.03 269.04,-267.63 0,-147.61 -120.67,-269.04 -269.04,-269.04zm0 458.55c-104.16,0 -188.88,-84.98 -188.88,-189.51 0,-104.54 84.72,-190.92 188.88,-190.92 104.16,0 188.89,85.61 188.89,190.92 0,105.3 -84.73,189.51 -188.89,189.51zm-541.62 -365.06l130.07 0 0 427.18c0,62.24 -52.2,114.7 -114.07,114.7 -25.91,0 -51.44,-9.4 -72.02,-26.55l-5.46 -5.46 -65.29 47.63 8.25 8.26c35.19,34.42 82.95,53.35 134.39,53.35 51.45,0 100.73,-19.69 136.55,-55.51 36.33,-36.33 56.27,-84.72 56.27,-136.55l0 -505.29 -208.69 -0.01 0 78.12 0 0.13zm4775.15 -78.12l-79.51 0 0 514.32 352.11 0 0 -77.36 -272.6 0 0 -436.96zm-243.75 323.66c0,66.3 -53.35,120.29 -118.89,120.29 -65.54,0 -118.9,-53.99 -118.9,-120.29l0 -323.53 -78.75 0 0 323.52c0,108.99 88.66,197.78 197.78,197.78 109.11,0 198.41,-88.66 198.41,-197.78l0 -323.52 -79.53 0 0 323.52 -0.12 0.01zm-597.89 -323.66l-197.9 514.32 84.85 0 55.25 -144.68 192.06 0 55.25 144.68 85.61 0 -198.66 -514.32 -76.34 0 -0.12 0zm-27.06 291.52l65.42 -169.83 64.9 169.83 -130.32 0zm-181.01 -254.17c-24.13,-24.14 -56.01,-37.35 -89.8,-37.35l-181.65 0 0 514.32 78.76 0 0 -260.78 102.89 0c70.11,0 127.15,-56.78 127.15,-126.39 0,-33.79 -13.34,-65.67 -37.35,-89.8zm-89.68 138.83l-102.88 0 0 -98.82 102.88 0c25.79,0 47.64,22.74 47.64,49.66 0,26.93 -21.34,49.03 -47.64,49.03l0 0.13zm-1053.52 -176.18l-169.07 0 0 514.32 169.07 0c145.7,0 264.21,-115.34 264.21,-257.22 0,-141.89 -118.52,-257.22 -264.21,-257.22l0 0.12zm0 436.96l-90.31 0 0 -359.47 90.31 -0.01c102.25,0 185.33,80.66 185.33,179.74 0,99.08 -83.2,179.74 -185.33,179.74zm321.62 77.36l324.93 0 0 -78.12 -245.41 0 0 -180.5 219.49 0 0 -78.76 -219.49 0 0 -100.09 251.63 0 0 -76.72 -331.15 0 0 514.31 0 -0.12zm2441.25 -514.32l-76.34 0 -197.9 514.32 84.85 0 55.25 -144.68 192.06 0 55.25 144.68 85.61 0 -198.66 -514.32 -0.12 0zm-103.4 291.52l65.42 -169.83 64.9 169.83 -130.32 0z"/>
  <path class="fil0" d="M4408.64 3836.15l-99.58 -12.68 0 88.06 85.29 -4.85c1.55,0 2.89,0.46 3.91,1.39 1.16,1.02 1.75,2.41 1.75,4.14l0 13.08c0,0.63 -0.12,1.32 -0.35,1.97 -0.25,0.71 -0.64,1.35 -1.19,1.9 -0.99,0.99 -3.71,1.66 -3.74,1.66l-85.8 -4.88 0 88.17c12.89,-1.65 96.41,-14.26 102,-12.66 0.66,0.18 1.3,0.54 1.88,1.02 0.54,0.46 0.97,1.01 1.3,1.67 0.75,2.08 0.76,7.7 0.76,17.56 0,0.73 -0.18,1.47 -0.46,2.12l-0.06 0.11c-0.3,0.63 -0.7,1.2 -1.14,1.64 -1.04,1.01 -3.98,1.66 -4,1.66l-126.13 0c-0.75,0.01 -1.46,-0.17 -2.11,-0.45l-0.11 -0.06c-0.61,-0.29 -1.16,-0.67 -1.59,-1.08l-0.39 -0.45c-0.8,-1.07 -1.33,-3.45 -1.33,-3.48l0 -206.16c0,-0.8 0.17,-1.58 0.47,-2.27 0.31,-0.68 0.72,-1.26 1.19,-1.73 1.14,-1.14 3.85,-1.54 3.87,-1.54l126.13 0c0.59,0 1.33,0.1 2.01,0.33 0.69,0.24 1.42,0.65 1.98,1.21 0.46,0.46 0.88,1.05 1.18,1.74 0.3,0.66 0.49,1.44 0.49,2.26l-0.15 16.63 -0.25 0.58c-0.49,1.17 -1.31,2.08 -2.3,2.65 -0.93,0.54 -1.99,0.78 -3.09,0.78l-0.44 -0.04zm-395.61 -25.89c8.47,-0.25 64.86,-0.25 169.7,-0.25 1.06,0.03 2.07,0.32 2.93,0.89 0.9,0.62 1.61,1.46 2.06,2.52 0.4,1.29 0.41,6.87 0.41,17.25 0,0.73 -0.18,1.47 -0.46,2.12l-0.06 0.11c-0.3,0.63 -0.7,1.2 -1.14,1.64 -0.52,0.52 -1.39,0.89 -2.04,1.26 -0.67,0.26 -1.41,0.4 -2.21,0.4 -3.64,0 -12.64,-2.02 -16.78,-2.7 -17.17,-3.09 -34.29,-6.14 -51.51,-8.96 -0.12,9.19 0.28,74.39 0.28,197.29 0,0.77 -0.19,1.49 -0.5,2.18 -0.29,0.63 -0.71,1.23 -1.17,1.69 -0.99,0.99 -3.97,1.66 -3.99,1.66l-20.33 -0.02c-0.73,0.01 -1.47,-0.17 -2.12,-0.45l-0.11 -0.06c-0.62,-0.29 -1.2,-0.7 -1.64,-1.14 -0.4,-0.4 -0.82,-1.12 -1.11,-1.61 -0.35,-0.7 -0.55,-1.43 -0.55,-2.26l-0.12 -197.29 -14.19 2.33 -37.14 6.58c-4.16,0.69 -13.29,2.75 -16.94,2.75 -0.64,0 -1.28,-0.14 -1.87,-0.35l-1.7 -0.92c-1.27,-0.93 -2.22,-1.48 -2.22,-3.62l-0.04 -14c0.05,-2.01 0.19,-3.3 0.31,-3.73 0.19,-0.63 0.82,-1.62 1.2,-2.06 0.75,-0.81 1.71,-1.37 3.05,-1.37l0 0.12zm-585.04 12.3c-4.7,-0.99 -9.43,-1.48 -14.13,-1.48l-3.84 0c-5.06,0.36 -9.77,1.43 -14.09,3.17 -5.45,2.19 -10.41,5.52 -14.78,9.89 -3.76,4.12 -6.59,8.22 -8.45,12.26 -1.8,3.93 -2.72,7.86 -2.72,11.82 0,3.45 0.62,6.8 1.85,9.97 1.24,3.2 3.16,6.35 5.71,9.36 2.6,3.07 5.7,5.82 9.29,8.22 3.64,2.42 7.83,4.53 12.5,6.27 5.5,1.93 11.04,3.77 16.57,5.44 5.54,1.67 11.11,3.23 16.7,4.6l20.97 5.88c7.54,2.41 14.01,5.3 19.42,8.65 5.54,3.43 10.05,7.41 13.49,11.88 3.42,4.45 6.02,9.47 7.73,15.03 1.68,5.51 2.54,11.56 2.54,18.1 0,4.97 -0.41,9.72 -1.22,14.22 -0.78,4.48 -2.01,8.72 -3.63,12.64 -1.58,4.02 -3.79,7.91 -6.59,11.61 -2.8,3.69 -6.24,7.28 -10.26,10.69 -6.58,5.57 -14.44,9.78 -23.67,12.57 -9.08,2.74 -19.54,4.13 -31.43,4.13 -11.75,0 -23.12,-1.24 -34.04,-3.69 -10.92,-2.45 -21.41,-6.14 -31.38,-11.03 -0.92,-0.44 -1.65,-1.03 -2.19,-1.8 -0.63,-0.89 -0.93,-1.87 -0.93,-2.98l0 -41.41c0,-1.24 0.4,-2.47 1.54,-3.61 0.52,-0.52 1.13,-0.92 1.76,-1.17 0.7,-0.27 1.33,-0.37 1.99,-0.37 1.12,0 2.12,0.32 2.98,0.93 0.75,0.52 1.34,1.25 1.79,2.15l0.19 0.44c1.53,4.46 3.4,8.71 5.55,12.74 2.16,4.04 4.65,7.92 7.39,11.57 2.68,3.58 5.72,6.85 9.04,9.75 3.32,2.88 6.94,5.43 10.83,7.58 3.8,2.12 7.89,3.74 12.22,4.8 4.37,1.07 9.07,1.61 14.03,1.61 13.79,0 25.14,-2.14 34.03,-6.39 8.68,-4.16 15.11,-10.38 19.25,-18.61 2.28,-4.57 3.43,-9.26 3.43,-14.05 0,-2.63 -0.4,-5.26 -1.16,-7.81 -0.78,-2.62 -1.98,-5.24 -3.53,-7.77 -1.55,-2.53 -3.5,-4.92 -5.81,-7.13 -2.3,-2.2 -5.06,-4.29 -8.19,-6.26 -2.63,-1.5 -5.64,-2.98 -8.98,-4.36 -3.22,-1.33 -6.85,-2.63 -10.87,-3.84l-12.54 -3.8 -21.87 -5.83c-6.84,-1.89 -12.98,-3.91 -18.4,-6.03 -5.49,-2.16 -10.35,-4.47 -14.5,-6.91l-0.11 -0.06c-3.76,-2.39 -7.04,-5.11 -9.79,-8.17 -2.78,-3.1 -5.08,-6.54 -6.86,-10.31 -1.72,-3.73 -3.03,-7.55 -3.88,-11.44 -0.85,-3.9 -1.29,-7.93 -1.29,-12.02 0,-4.43 0.45,-8.86 1.35,-13.26 0.88,-4.3 2.24,-8.58 4.02,-12.76 1.81,-4.24 3.98,-8.15 6.44,-11.69 2.45,-3.53 5.29,-6.8 8.49,-9.8l0.1 -0.1c13.23,-11.49 29.89,-17.24 50.17,-17.24 5.27,0 10.65,0.31 16.09,0.89 5.41,0.58 10.86,1.46 16.26,2.61l15.82 3.65c8.15,2.16 16.65,4.15 24.71,6.5 1.13,0.38 1.74,0.96 2.29,1.53l-0.13 0.12c1.48,2.98 1.49,15.18 1.49,37.36 0,1.11 -0.32,2.18 -0.99,3.1 -0.57,0.79 -1.39,1.46 -2.44,1.9l-0.64 0.27 -1.21 0c-0.87,0 -1.7,-0.2 -2.5,-0.64 -0.81,-0.43 -1.5,-1.08 -2.03,-1.97 -2.34,-3.51 -5.06,-6.95 -8.15,-10.27 -3.12,-3.38 -6.68,-6.69 -10.61,-9.89 -3.8,-3.15 -7.92,-6.04 -12.3,-8.64 -4.39,-2.6 -8.99,-4.91 -13.73,-6.84 -4.71,-1.99 -9.45,-3.49 -14.16,-4.47zm173.99 -12.55l20.32 0c0.72,0 1.46,0.18 2.12,0.46l0.11 0.06c0.62,0.29 1.2,0.7 1.64,1.14l0.33 0.39c0.8,1.07 1.33,3.45 1.33,3.48l0 206.16c0,0.81 -0.17,1.59 -0.47,2.27 -0.32,0.7 -0.74,1.28 -1.19,1.73l-0.39 0.33c-1.21,0.9 -3.46,1.2 -3.48,1.2l-20.32 0 -1.89 -0.27c-0.8,-0.23 -1.51,-0.66 -2.11,-1.26 -0.99,-0.99 -1.66,-3.98 -1.66,-4l0 -206.15c0,-0.72 0.18,-1.46 0.46,-2.12l0.06 -0.11c0.29,-0.61 0.69,-1.19 1.14,-1.64 1.03,-1 3.98,-1.67 4,-1.67zm271.84 -0.18c9.21,2.17 17.79,5.43 25.68,9.77 7.85,4.43 14.84,9.58 20.92,15.42 6.1,5.88 11.36,12.53 15.72,19.93 8.7,14.89 13.06,31.37 13.06,49.52 0,17.74 -2.81,34.1 -8.42,49.07 -5.62,15.01 -14.06,28.62 -25.28,40.82 -11.25,12.23 -24.41,21.43 -39.39,27.54 -14.96,6.1 -31.76,9.15 -50.31,9.15 -15.08,0 -28.88,-2.5 -41.33,-7.45 -12.51,-4.98 -23.65,-12.44 -33.31,-22.31 -9.65,-9.92 -16.92,-20.82 -21.78,-32.7 -4.85,-11.89 -7.3,-24.76 -7.3,-38.59 0,-5.91 0.49,-12.02 1.46,-18.25 0.96,-6.18 2.39,-12.52 4.28,-18.94 1.88,-6.44 4.36,-12.76 7.39,-18.92 3.04,-6.2 6.65,-12.25 10.77,-18.06 4.14,-5.85 8.87,-11.35 14.14,-16.41 5.25,-5.05 11.13,-9.79 17.61,-14.18 9.38,-6.24 19.66,-10.91 30.77,-14 11.11,-3.1 23.09,-4.65 35.84,-4.65 10.46,0 20.29,1.09 29.48,3.24zm28.83 178.95c5.48,-5.18 10.38,-11.21 14.68,-18.09l1.04 -1.65c3.47,-6.05 6.09,-12.15 7.85,-18.25 1.92,-6.65 2.9,-13.43 2.9,-20.3 0,-9.02 -1.23,-17.81 -3.67,-26.29 -2.43,-8.48 -6.13,-16.75 -11.04,-24.72 -4.96,-8.06 -10.68,-15.43 -17.16,-22.02 -6.4,-6.53 -13.58,-12.35 -21.49,-17.38 -7.92,-5.02 -16.13,-8.81 -24.55,-11.31 -8.45,-2.51 -17.18,-3.76 -26.17,-3.76 -10.09,0 -19.7,1.89 -28.78,5.63 -9.13,3.78 -17.82,9.48 -26.01,17.05 -8.22,7.56 -14.37,16.01 -18.43,25.32 -4.06,9.32 -6.1,19.61 -6.1,30.81 0,6.55 0.62,13.09 1.84,19.56 1.22,6.46 3.08,12.97 5.55,19.46 2.48,6.52 5.45,12.7 8.88,18.53 3.42,5.81 7.39,11.38 11.86,16.66 4.41,5.21 9.23,9.9 14.38,14.06 5.23,4.22 10.88,7.96 16.85,11.16 5.84,3.13 12.1,5.5 18.52,7.07 6.54,1.61 13.32,2.42 20.11,2.42 6.71,0 13.47,-0.9 20.21,-2.68 6.75,-1.79 13.54,-4.5 20.32,-8.09 6.8,-3.62 12.95,-8.02 18.41,-13.19zm-676.91 -178.77l20.32 0c0.72,0 1.46,0.18 2.12,0.46l0.11 0.06c0.62,0.29 1.2,0.7 1.64,1.14l0.33 0.39c0.79,1.06 1.34,3.45 1.34,3.48l0 206.16c0,0.83 -0.19,1.61 -0.48,2.27 -0.32,0.7 -0.74,1.28 -1.19,1.73l-0.39 0.33c-1.21,0.9 -3.46,1.2 -3.48,1.2l-20.32 0c-0.64,0.01 -1.29,-0.08 -1.93,-0.28 -0.77,-0.24 -1.47,-0.66 -2.06,-1.25 -0.98,-0.98 -1.67,-3.98 -1.67,-4l0 -206.15c0,-0.74 0.18,-1.5 0.5,-2.19 0.29,-0.63 0.72,-1.26 1.23,-1.74 1.04,-0.95 3.91,-1.61 3.93,-1.61zm-232.96 0l126.13 0c0.62,0 1.25,0.08 1.89,0.28 0.8,0.23 1.51,0.66 2.11,1.26 1.15,1.15 1.53,3.98 1.53,4l0 15.11c0,1.7 -0.53,3.05 -1.62,4.08 -1.04,0.98 -2.37,1.45 -4.04,1.45 -23.99,0 -73.59,-9.35 -100.02,-12.72l0 99.13 85.67 -4.87c0.62,0 1.27,0.09 1.92,0.35 0.68,0.24 1.29,0.66 1.82,1.19 1.18,1.2 1.54,3.97 1.54,3.99l0 13.08c0,0.73 -0.18,1.47 -0.46,2.12l-0.06 0.11c-0.3,0.63 -0.7,1.2 -1.14,1.64 -1.04,1.01 -3.98,1.66 -4,1.66l-85.29 -4.84 0 84.67c0,0.73 -0.18,1.47 -0.46,2.12l-0.06 0.11c-0.3,0.63 -0.7,1.2 -1.14,1.64 -0.99,0.99 -3.98,1.66 -4,1.66l-20.32 0c-0.75,0.01 -1.46,-0.17 -2.11,-0.45l-0.11 -0.06c-0.61,-0.29 -1.16,-0.67 -1.59,-1.08l-0.39 -0.45c-0.8,-1.07 -1.33,-3.45 -1.33,-3.48l0 -206.16c0,-0.8 0.17,-1.58 0.47,-2.27 0.31,-0.68 0.72,-1.26 1.19,-1.73 1.14,-1.14 3.85,-1.54 3.87,-1.54zm1634.83 133l5.79 6.74 0.12 -0.11 2.36 2.93c10.19,12.65 19.61,24.6 28.23,35.79 8.43,10.94 15.99,21.05 22.63,30.24 1.35,1.09 1.36,2.02 1.36,3.36 0,0.68 -0.23,1.51 -0.39,1.97 -0.4,1.18 -1.14,2.01 -2.16,2.55 -0.8,0.43 -1.68,0.63 -2.61,0.63l-28.58 0c-1.99,0 -5.51,-4.16 -10.44,-12.42 -4.27,-7.15 -10.29,-17.82 -18.03,-31.97 -4.36,-8.09 -8.24,-14.88 -11.59,-20.33 -3.32,-5.4 -6.11,-9.44 -8.32,-12.08 -2.04,-2.37 -4.26,-4.16 -6.62,-5.33 -2.3,-1.13 -4.85,-1.71 -7.62,-1.71l-49.34 0 0 78.31c0,0.63 -0.12,1.32 -0.35,1.97 -0.25,0.71 -0.64,1.35 -1.19,1.9 -1.02,0.98 -3.98,1.66 -4,1.66l-20.32 0c-0.76,0 -1.48,-0.17 -2.12,-0.42 -0.74,-0.29 -1.36,-0.73 -1.87,-1.24l-0.33 -0.39c-0.79,-1.06 -1.34,-3.45 -1.34,-3.48l0 -206.16c0,-0.75 0.17,-1.51 0.47,-2.21 0.3,-0.71 0.72,-1.31 1.2,-1.79 1.14,-1.14 3.97,-1.54 3.99,-1.54l86.63 0c6.95,0 13.59,0.57 19.86,1.71 6.27,1.14 12.18,2.87 17.69,5.19 5.5,2.34 10.48,5.32 14.85,8.92 4.4,3.62 8.22,7.87 11.38,12.7 3.17,4.89 5.56,10.42 7.13,16.58 1.55,6.08 2.33,12.77 2.33,20.01 0,9.47 -1.27,18.04 -3.75,25.67 -2.52,7.76 -6.33,14.55 -11.34,20.31 -5.06,5.82 -11.11,10.49 -18.1,14.05 -5.22,2.65 -11.01,4.71 -17.33,6.19l1.72 1.8zm-85.34 -12.45l65.73 0c6.16,-0.29 11.54,-1.77 16.08,-4.38 4.55,-2.61 8.38,-6.45 11.43,-11.47 3.18,-5.21 5.56,-10.8 7.14,-16.7 1.58,-5.93 2.37,-12.21 2.37,-18.82 0,-4.68 -0.4,-9.32 -1.19,-13.88 -0.79,-4.61 -1.99,-9.09 -3.54,-13.4 -3.09,-8.58 -7.74,-15.61 -13.9,-21.05 -2.94,-2.61 -6.31,-4.59 -10.02,-5.89 -3.77,-1.32 -7.98,-1.99 -12.56,-1.99l-61.54 0 0 107.58zm1127.55 36.31c1.11,-3.43 1.67,-6.99 1.67,-10.58l0 -7.99 0.13 0.12 0 -138.28 31.51 0 0 217.22 -31.51 0 0 -35.15c-2.74,3.67 -5.69,7.06 -8.84,10.18 -5.85,5.79 -12.46,10.68 -19.8,14.64 -7.28,3.93 -14.63,6.91 -22.01,8.88 -7.42,1.98 -14.92,2.98 -22.45,2.98 -5.87,0 -11.61,-0.64 -17.18,-1.91 -5.52,-1.26 -10.9,-3.17 -16.09,-5.69 -5.25,-2.55 -10.02,-5.77 -14.26,-9.63 -4.25,-3.85 -8,-8.37 -11.2,-13.51 -6.45,-10.34 -9.68,-23.3 -9.68,-38.94l0 -149.07 31.51 0 0 137.76c0,7.91 0.55,14.96 1.65,21.1 1.11,6.16 2.73,11.47 4.85,15.89 2.14,4.46 4.62,8.34 7.42,11.57 2.72,3.14 5.8,5.7 9.18,7.58 3.45,1.96 7.04,3.45 10.77,4.44 3.68,0.96 7.53,1.47 11.54,1.47 3.22,0 6.5,-0.31 9.79,-0.87 3.38,-0.59 6.76,-1.44 10.1,-2.51 3.35,-1.07 6.71,-2.55 10.08,-4.39 3.36,-1.83 6.82,-4.11 10.34,-6.77 3.48,-2.6 6.64,-5.43 9.51,-8.47 2.86,-3.02 5.49,-6.32 7.87,-9.86 2.28,-3.34 3.99,-6.76 5.1,-10.21zm442.09 -159.11c1.05,0.61 1.76,1.49 2.23,2.59l0.93 2.17 -0.16 0.17 62.82 154.96c14.35,35.41 21.55,53.44 21.55,54.18 0,1.15 -0.34,1.76 -0.72,2.52l-0.18 0.35c-0.47,0.91 -1.16,1.61 -2.07,2.07 -0.76,0.39 -1.63,0.59 -2.56,0.59l-21.97 0c-1.02,0 -2.05,-0.31 -2.99,-0.98 -0.69,-0.49 -1.31,-1.17 -1.81,-2.04 -7.5,-12.69 -19.62,-47.97 -26.04,-63.69 -7.06,-17.45 -10.98,-27.35 -11.76,-29.57l-58.44 0 -37.67 92.65c-0.38,1.21 -1.08,2.08 -2.01,2.71 -0.96,0.65 -2.01,0.92 -3.2,0.92l-2.19 0c-9.87,0 -14.95,-0.01 -15.84,-0.31 -1.44,-0.5 -2.59,-1.88 -3.33,-4.13l-0.3 -0.9 0.22 -0.96c0.11,-0.52 3.03,-7.04 8.69,-19.44l56.07 -122.12c6.87,-15.12 24.22,-58.88 31.77,-69.83 1.2,-1.8 2.81,-2.7 4.81,-2.7l1.11 0c1.14,-0.01 2.16,0.26 3.04,0.79zm-35.96 110.48l48.26 0 -10.91 -26.15 -13.3 -33.17 -0.15 0.37c-8.27,20.65 -16.26,40.55 -23.9,58.95zm-281.81 -107.96c8.58,-0.26 64.97,-0.27 169.7,-0.27 1.04,0.06 1.98,0.35 2.8,0.89 0.91,0.59 1.6,1.44 2.06,2.52 0.4,1.29 0.41,6.87 0.41,17.25 0,0.73 -0.18,1.47 -0.46,2.12l-0.06 0.11c-0.29,0.62 -0.7,1.2 -1.14,1.64 -0.54,0.51 -1.33,0.87 -1.99,1.24 -0.72,0.27 -1.43,0.42 -2.26,0.42 -3.64,0 -12.64,-2.02 -16.78,-2.7 -17.17,-3.1 -34.29,-6.14 -51.51,-8.96 -0.12,9.18 0.28,74.38 0.28,197.29 0,0.75 -0.18,1.46 -0.46,2.11l-0.06 0.11c-0.29,0.61 -0.67,1.16 -1.08,1.59l-0.1 0.09c-1,0.97 -3.94,1.63 -3.96,1.63l-20.33 -0.02c-0.72,0.01 -1.46,-0.17 -2.12,-0.45l-0.11 -0.06c-0.61,-0.29 -1.19,-0.69 -1.64,-1.14l-1.11 -1.61c-0.35,-0.7 -0.55,-1.43 -0.55,-2.26l-0.12 -197.27 -14.07 2.31 -37.14 6.58c-4.16,0.69 -13.29,2.75 -16.94,2.75 -0.64,0 -1.26,-0.14 -1.86,-0.35l-1.7 -0.92c-1.27,-0.93 -2.22,-1.48 -2.22,-3.62 -0.13,-1.62 -0.13,-4.31 -0.13,-8.26l0.08 -5.79c0.06,-2.01 0.21,-3.36 0.39,-3.87l0.19 -0.46c0.23,-0.46 0.48,-0.9 0.95,-1.4 0.75,-0.82 1.74,-1.38 3.04,-1.38l0 0.14zm-928.03 -3.31l4.64 0 0 1.23c0.77,0.57 1.35,1.34 1.75,2.28l63.71 157.17c14.35,35.41 21.55,53.44 21.55,54.18 0,1.15 -0.34,1.76 -0.72,2.52l-0.18 0.35c-0.47,0.91 -1.16,1.61 -2.07,2.07 -0.76,0.39 -1.63,0.59 -2.56,0.59l-21.97 0c-1.02,0 -2.05,-0.31 -2.99,-0.98 -0.69,-0.49 -1.31,-1.17 -1.81,-2.04 -7.5,-12.69 -19.62,-47.97 -26.04,-63.69 -7.06,-17.45 -10.98,-27.35 -11.76,-29.57l-58.44 0 -37.67 92.65c-0.38,1.21 -1.08,2.08 -2.01,2.71 -0.96,0.65 -2.01,0.92 -3.2,0.92 -3.57,-0.03 -15.24,0.6 -18.02,-0.31 -1.45,-0.49 -2.6,-1.88 -3.34,-4.13l-0.18 -1.09c0,-0.82 2.92,-7.55 8.68,-20.21l56.05 -122.12c6.87,-15.12 24.22,-58.88 31.77,-69.83 1.2,-1.8 2.81,-2.7 4.81,-2.7zm-31.8 111.27l48.38 0 -10.9 -26.15 -13.37 -33.34c-8.35,20.84 -16.4,40.93 -24.11,59.49zm598.13 -82.09l-99.45 -12.66 0 88.04 85.29 -4.85c1.57,0 2.9,0.46 3.93,1.38 1.14,1.06 1.73,2.43 1.73,4.15l0 13.08c0,0.63 -0.12,1.32 -0.35,1.97 -0.24,0.7 -0.63,1.34 -1.19,1.9 -0.99,0.99 -3.71,1.66 -3.74,1.66l-85.8 -4.88 0 88.16c12.89,-1.65 96.26,-14.25 101.87,-12.65 0.67,0.19 1.31,0.54 1.88,1.02 0.55,0.47 0.97,1.01 1.3,1.67 0.75,2.08 0.76,7.7 0.76,17.56 0,0.73 -0.18,1.47 -0.46,2.12l-0.06 0.11c-0.29,0.62 -0.7,1.2 -1.14,1.64 -1.04,1 -3.98,1.66 -4,1.66l-126.13 0c-0.73,0.01 -1.45,-0.17 -2.11,-0.45l-0.11 -0.06c-0.6,-0.28 -1.15,-0.66 -1.59,-1.08l-0.39 -0.45c-0.8,-1.07 -1.33,-3.45 -1.33,-3.48l0 -206.16c0,-0.8 0.17,-1.58 0.47,-2.27 0.31,-0.68 0.73,-1.27 1.19,-1.73l0.39 -0.33c1.21,-0.9 3.46,-1.21 3.48,-1.21l126.13 0c0.6,0 1.34,0.1 2.01,0.33 0.7,0.25 1.42,0.65 1.98,1.21 0.48,0.48 0.9,1.08 1.2,1.79 0.3,0.7 0.47,1.46 0.47,2.21 -0.05,5.52 0,11.12 -0.16,16.63l-0.24 0.58c-0.49,1.17 -1.3,2.08 -2.3,2.65 -0.92,0.53 -1.99,0.78 -3.09,0.78l-0.44 -0.04zm-251.38 -12.9l4.82 3.55 0 -0.92 6.04 6.45c3.12,3.33 5.88,6.93 8.22,10.72 2.34,3.8 4.32,7.85 5.85,12.07 1.55,4.22 2.69,8.47 3.43,12.72 0.74,4.26 1.11,8.6 1.11,12.99 -0.07,6.07 -0.82,11.94 -2.25,17.53 -1.41,5.61 -3.57,11.02 -6.45,16.18 -2.88,5.17 -6.41,9.84 -10.58,14.02 -4.16,4.18 -8.95,7.87 -14.32,11.05 -5.41,3.21 -11.47,5.64 -18.11,7.24 -6.58,1.59 -13.73,2.39 -21.39,2.39l-64.33 0 0 72.46c0,0.73 -0.18,1.47 -0.46,2.12l-0.06 0.11c-0.29,0.62 -0.7,1.2 -1.14,1.64 -1.04,1 -3.98,1.66 -4,1.66l-20.32 0c-0.73,0.01 -1.45,-0.17 -2.11,-0.45l-0.11 -0.06c-0.6,-0.28 -1.15,-0.66 -1.59,-1.08l-0.39 -0.45c-0.8,-1.07 -1.33,-3.45 -1.33,-3.48l0 -206.16c0,-0.8 0.17,-1.58 0.47,-2.27 0.31,-0.68 0.73,-1.27 1.19,-1.73l0.39 -0.33c1.21,-0.9 3.46,-1.21 3.48,-1.21l86.37 0c6.56,0 12.68,0.5 18.34,1.5 5.71,1.01 11.03,2.56 15.93,4.64 4.83,2.05 9.28,4.41 13.3,7.1zm-12.83 97.53c1.71,-2.65 3.21,-5.58 4.48,-8.75l-0.11 -0.1 0.78 -2.17c1.44,-4.03 2.55,-8.26 3.27,-12.58 0.73,-4.34 1.1,-8.83 1.1,-13.42 0,-5.05 -0.46,-9.99 -1.33,-14.82 -0.88,-4.87 -2.19,-9.69 -3.9,-14.45 -1.75,-4.71 -3.9,-9.01 -6.41,-12.83 -2.54,-3.81 -5.47,-7.23 -8.78,-10.18 -3.19,-2.85 -6.83,-5.01 -10.86,-6.45 -4.03,-1.44 -8.55,-2.17 -13.49,-2.17l-59.88 0 0 113.54 67.63 0c4.19,0 7.98,-0.6 11.34,-1.79 3.31,-1.17 6.32,-2.95 8.95,-5.31 2.72,-2.43 5.13,-5.29 7.21,-8.52z"/>
 </g>
</svg>
