<?xml version="1.0" encoding="UTF-8"?>
<!DOCTYPE svg PUBLIC "-//W3C//DTD SVG 1.1//EN" "http://www.w3.org/Graphics/SVG/1.1/DTD/svg11.dtd">
<svg xmlns="http://www.w3.org/2000/svg" xml:space="preserve" width="100%" height="100%" version="1.1" style="shape-rendering:geometricPrecision; text-rendering:geometricPrecision; image-rendering:optimizeQuality; fill-rule:evenodd; clip-rule:evenodd"
viewBox="1000 7000 19000 16000"
 xmlns:xlink="http://www.w3.org/1999/xlink">
 <defs>
  <style type="text/css">
   <![CDATA[
    .fil0 {fill:#132239;fill-rule:nonzero}
    .fil2 {fill:#202C3C;fill-rule:nonzero}
    .fil1 {fill:url(#id0);fill-rule:nonzero}
   ]]]>
  </style>
  <linearGradient id="id0" gradientUnits="objectBoundingBox" x1="50%" y1="0%" x2="50%" y2="100%">
   <stop offset="0" style="stop-opacity:1; stop-color:#2AD467"/>
   <stop offset="1" style="stop-opacity:1; stop-color:#06C98E"/>
  </linearGradient>
 </defs>
 <g id="Camada_x0020_1">
  <g id="_2410398615936">
   <path class="fil0" d="M9060.67 8808.33l20.77 0.08c141.59,0.5 256,115.71 255.5,257.29l-3.18 908.31c-0.48,141.58 -115.69,255.99 -257.27,255.49l-20.78 -0.07c-141.56,-0.49 -255.97,-115.7 -255.48,-257.28l3.16 -908.32c0.51,-141.58 115.72,-255.98 257.3,-255.49l-0.02 -0.01zm4415.56 2133.7c0.89,211.45 0.5,420.56 -1.17,627.32 -0.34,38.63 -6.76,68.1 -19.26,88.42 -49.01,-249.52 -175.39,-447.91 -379.14,-595.17 -170.59,-123.36 -356.2,-185.21 -556.82,-185.55 -992.28,-1.67 -2306.82,-2.12 -3943.61,-1.34 -153.85,0 -268.06,8.21 -342.63,24.62 -215.92,47.22 -397.56,154.18 -544.93,320.86 -109.3,123.7 -183.43,275.09 -222.39,454.16 -6.7,-12.5 -10.22,-31.09 -10.55,-55.76 -2.91,-226.86 -4.92,-455.17 -6.03,-684.93 -2.68,-124.15 -3.3,-247.46 -1.85,-369.93 4.86,-439.76 239.81,-799.14 642.9,-966.77 152.95,-63.75 327.06,-89.76 522.32,-78.04 24.9,1.56 37.46,19.2 37.68,52.92 1.67,207.66 2.06,324.27 1.17,349.83 -6.36,206.49 64.31,369.76 265.77,435.07 233.61,75.7 474.76,-17.75 555.98,-257.56 12.5,-37.17 17.75,-96.51 15.74,-178.01 -3.35,-132.85 -2.62,-250.53 2.18,-353.01 1.78,-35.73 22.1,-53.59 60.95,-53.59 1059.05,1.34 1650.03,1.67 1772.95,1 24.67,-0.22 43.65,1.73 56.93,5.86 19.29,5.93 32.77,23.38 33.65,43.55 4.7,96.9 5.93,190.35 3.7,280.33 -3.24,131.51 0.5,213.85 11.22,247.01 27.35,84.07 73.29,151.78 137.82,203.13 102.32,81.39 249.52,102.83 377.13,74.19 135.48,-30.31 244.33,-125.43 289.55,-256.89 10.16,-29.25 15.4,-80.77 15.74,-154.57 0.67,-108.96 0.89,-237.85 0.67,-386.67 0,-55.77 45.05,-54.6 96.12,-55.77 242.16,-5.69 454.33,26.96 658.47,155.91 300.43,189.9 468.4,504.9 471.41,862.61 1.23,138.1 0.67,273.69 -1.67,406.77zm-1655.69 -2133.29l20.1 -0.07c141.22,-0.49 256.12,113.62 256.62,254.83l3.16 908.65c0.5,141.21 -113.61,256.12 -254.82,256.61l-20.1 0.07c-141.21,0.5 -256.11,-113.61 -256.61,-254.82l-3.17 -908.66c-0.49,-141.2 113.62,-256.11 254.83,-256.61l-0.01 0z"/>
   <path class="fil1" d="M13409.91 14422.43c33.49,-158.31 50.24,-284.57 50.24,-378.8 0.56,-763.86 1.12,-1527.66 1.68,-2291.41 0,-30.82 -5.87,-62.63 -6.03,-94.45 12.5,-20.32 18.92,-49.79 19.26,-88.42 1.67,-206.76 2.06,-415.87 1.17,-627.32 99.47,86.19 186.61,178.35 261.41,276.48 161.77,212.34 294.23,443.11 386.34,694.64 118.01,322.54 183.2,655.9 195.6,1000.1 4.8,136.31 4.3,277.26 -1.51,422.84 -14.85,369.87 -81.05,730.26 -198.61,1081.15 -40.86,136.43 -98.75,283.3 -173.66,440.6 -191.92,402.75 -462.2,787.25 -791.77,1090.36 -325.44,297.53 -694.48,524.61 -1107.11,681.24 -386.73,146.81 -787.08,233.5 -1201.05,260.07 -714.57,45.89 -1428.13,-59.61 -2083.92,-343.63 -35,-15.07 -59.45,-14.07 -96.46,0.67 -555.65,219.6 -1037.05,408.44 -1444.21,566.53 -52.25,20.21 -97.69,13.56 -136.32,-19.93 -27.91,-24.11 -37.18,-56.38 -27.8,-96.79 41.87,-181.09 86.02,-361.06 132.47,-539.91l220.21 -889.4c2.87,-11.06 0.32,-22.85 -6.85,-31.81 -83.97,-104.95 -160.45,-215.37 -229.44,-331.25 -464.88,-734.67 -646.41,-1643.49 -553.64,-2507.94 50.46,-470.13 191.25,-893.82 422.35,-1271.06 103.49,-169.02 239.3,-332.47 407.44,-490.33 1.11,229.76 3.12,458.07 6.03,684.93 0.33,24.67 3.85,43.26 10.55,55.76 -1.9,710.27 -2.4,1421.55 -1.51,2133.83 0.17,120.24 -1.34,249.19 11.22,361.89 47.67,429.27 218.99,803.94 513.95,1124.02 82.39,86.3 169.92,167.57 262.58,243.83 88.09,72.51 190.07,134.97 287.2,199.45 84.07,55.82 191.8,114.43 323.21,175.83 313.04,146.48 640.6,251.48 982.68,315 68.21,9.38 137.32,18.76 207.32,28.14 415.09,54.93 828.72,45.6 1240.91,-27.97 385.28,-68.88 744.65,-203.13 1078.13,-402.75 177.51,-109.86 338.39,-238.36 482.63,-385.5 282.12,-287.48 467.23,-627.04 555.31,-1018.69z"/>
   <path class="fil2" d="M8635.95 11681.56l394.55 -0.69c127.25,-0.21 230.62,102.8 230.84,230.04l0.65 374.77c0.23,127.24 -102.78,230.61 -230.02,230.84l-394.56 0.68c-127.22,0.23 -230.59,-102.78 -230.81,-230.02l-0.67 -374.79c-0.21,-127.23 102.8,-230.6 230.04,-230.82l-0.02 -0.01zm1607.27 -0.02l393.21 0.69c127.43,0.22 230.59,103.74 230.37,231.17l-0.66 373.44c-0.22,127.43 -103.74,230.59 -231.17,230.37l-393.2 -0.69c-127.41,-0.22 -230.57,-103.74 -230.35,-231.17l0.64 -373.45c0.23,-127.42 103.75,-230.58 231.18,-230.36l-0.02 0zm1628.47 -0.15l392.54 -0.69c128.45,-0.21 232.8,103.76 233.02,232.21l0.64 370.76c0.23,128.44 -103.75,232.79 -232.19,233.02l-392.55 0.68c-128.44,0.23 -232.78,-103.76 -233.01,-232.2l-0.65 -370.77c-0.22,-128.44 103.76,-232.78 232.21,-233.01l-0.01 0z"/>
   <path class="fil1" d="M11970.73 13543.08c2.74,2.97 6.61,4.65 10.65,4.65 4.28,0 8.34,-1.88 11.11,-5.14 162.89,-194.38 331.25,-402.04 505.08,-622.98 13.84,-17.64 30.59,-35.56 50.24,-53.76 101.15,-92.94 262.75,-18.75 295.74,100.48 13.17,47.56 -1.68,97.24 -44.55,149.05 -211.34,255.21 -439.37,533.59 -684.09,835.14 -20.32,25.12 -51.07,40.41 -92.27,45.88 -66.76,8.82 -125.26,-14.29 -175.5,-69.33 -215.7,-236.57 -354.64,-389.57 -416.82,-459.01 -79.21,-88.76 -41.36,-208.5 55.93,-261.25 79.21,-42.87 166.29,-12.56 226.58,53.76 150.72,165.45 236.68,259.62 257.9,282.51z"/>
   <path class="fil2" d="M8644.47 13036.51l385.15 2.68c130.3,0.91 235.23,107.31 234.32,237.6l-2.56 365.07c-0.9,130.29 -107.3,235.22 -237.59,234.31l-385.17 -2.7c-130.28,-0.9 -235.2,-107.3 -234.29,-237.59l2.54 -365.07c0.92,-130.3 107.32,-235.22 237.61,-234.31l-0.01 0.01zm1598.03 1311.57l393.87 0c127.33,0.01 230.59,103.27 230.59,230.61l0.01 375.78c-0.01,127.35 -103.27,230.61 -230.61,230.61l-393.86 -0.01c-127.32,0.01 -230.58,-103.25 -230.58,-230.59l-0.02 -375.8c0.02,-127.33 103.28,-230.59 230.62,-230.59l-0.02 -0.01zm-1602.68 -0.85l392.2 1.37c128.36,0.45 232.09,104.9 231.64,233.25l-1.31 371.77c-0.44,128.36 -104.89,232.08 -233.24,231.63l-392.21 -1.37c-128.34,-0.44 -232.06,-104.9 -231.61,-233.24l1.28 -371.78c0.46,-128.35 104.91,-232.08 233.26,-231.63l-0.01 0zm1607.26 -1309.73l385.17 0.68c129.37,0.23 234.09,105.32 233.87,234.69l-0.64 368.42c-0.23,129.37 -105.32,234.1 -234.69,233.87l-385.17 -0.67c-129.35,-0.22 -234.08,-105.32 -233.85,-234.69l0.62 -368.42c0.24,-129.37 105.34,-234.09 234.71,-233.87l-0.02 -0.01z"/>
   <path class="fil0" d="M11873.26 14348.25l390.53 0c129.18,0 233.94,104.76 233.94,233.95l0.01 368.75c-0.01,129.2 -104.77,233.96 -233.96,233.96l-390.52 -0.01c-129.2,0.01 -233.96,-104.75 -233.96,-233.94l0.01 -368.77c-0.01,-129.18 104.75,-233.94 233.94,-233.94z"/>
   <path class="fil1" d="M2963 18740.33l343.63 -419.5c0.87,-1.07 1.33,-2.37 1.33,-3.71 0,-3.16 -2.5,-5.75 -5.66,-5.86 -64.99,-2.33 -114.06,-3.49 -147.22,-3.49 -318.74,1 -645.3,1.23 -979.67,0.67 -88.92,-0.17 -99.13,-49.24 -97.46,-124.26 1.79,-76.7 2.9,-162.5 3.35,-257.39 0.5,-95.79 68.33,-88.76 149.55,-88.09 634.57,4.02 1192.45,4.19 1673.63,0.5 66.82,-0.5 91.77,38.86 89.43,104.17 -0.89,27.57 -0.23,118.95 2.01,274.14 0.33,22.55 -8.32,44.48 -25.96,65.81 -147.59,178.29 -294.23,357.31 -439.93,537.06l-589.3 719.92 -183.04 231.61c-0.67,0.83 -1.04,1.89 -1.04,2.99 0,2.64 2.1,4.79 4.74,4.86 399.56,2.36 801.52,2.98 1205.89,1.86 49.57,-0.17 62.13,37.01 62.97,82.56 3.24,165.12 3.29,270.62 0.16,316.51 -5.19,76.86 -72,72.51 -137.32,72.51 -98.69,0.11 -679.62,-0.11 -1742.8,-0.67 -74.52,0 -87.58,-49.4 -85.9,-117.9 0.56,-25.9 1.06,-119.01 1.5,-279.33 0,-23.11 12.23,-48.9 36.68,-77.36 97.91,-114.21 193.81,-228.26 287.7,-342.13l572.73 -695.48zm2853.08 1083.49c1.9,167.58 -62.96,284.13 -194.59,349.67 -98.91,49.34 -227.58,84.79 -386,106.34 -173.05,23.67 -339.84,24.89 -500.39,3.68 -106.62,-14.07 -208.32,-50.63 -305.12,-109.69 -116.55,-71.23 -187.83,-176.17 -213.85,-314.83 -38.01,-180.36 4.36,-390.19 146.87,-512.44 61.74,-53.03 124.59,-90.88 188.56,-113.54 241.65,-85.41 536.22,-80.39 793.28,-23.95 0.22,0.02 0.4,0.06 0.58,0.08 4.57,0.64 8.8,-2.48 9.43,-6.96 0.02,-0.18 0.04,-0.36 0.06,-0.54l3.16 -37.63c-1.51,-41.7 0.34,-91.94 -9.55,-128.78 -34.83,-128.94 -151.05,-195.6 -279.83,-209.33 -195.6,-20.88 -363.67,31.65 -504.23,157.59 -10.14,9.22 -26.01,8.89 -36.02,-0.9l-231.42 -231.54c-7.11,-7.1 -11.13,-16.73 -11.13,-26.78 0,-6.99 1.95,-13.85 5.62,-19.8 11.6,-18.63 32.02,-39.67 61.27,-63.11 101.71,-81.28 209.72,-137.94 324.05,-169.98 161.32,-45.44 330.07,-57.44 506.24,-36 156.75,19.09 281.62,62.68 374.62,130.79 208.16,152.56 269.78,380.64 261.07,635.02l-2.68 622.63zm-1086.5 42.2c132.07,77.48 283.07,95.29 452.99,53.42 51.91,-12.89 147.53,-48.9 171.48,-107.51l4.52 -290.88c0.08,-3.38 -2.39,-6.2 -5.78,-6.73 -101.98,-16.84 -207.96,-25.43 -317.93,-25.76 -137.65,-0.34 -330.4,30.64 -359.04,199.78 -10.38,61.74 7.54,120.97 53.76,177.68zm3160.38 -525.5c8.37,267.77 -68.33,516.79 -257.73,708.37 -163.78,165.62 -421.17,238.81 -650.93,233.11 -129.39,-3.24 -250.41,-35.11 -363.06,-95.62 -0.75,-0.43 -1.61,-0.65 -2.49,-0.65 -2.94,0 -5.34,2.37 -5.36,5.32 -0.91,192.49 -1.81,391.72 -2.7,597.7 -0.11,47.78 -26.24,71.84 -78.38,72.18 -118.9,0.89 -232.88,-0.06 -341.96,-2.85 -41.7,-1.01 -50.74,-38.18 -50.74,-75.36 -0.67,-346.65 -0.95,-691.96 -0.84,-1035.93 -0.78,-353.35 -0.95,-705.36 -0.5,-1056.03 0,-68.88 35.95,-118.4 107.85,-148.54 190.91,-80.05 403.75,-105.17 608.73,-115.55 77.03,-3.8 171.54,1.34 283.52,15.4 207.54,26.24 381.93,110.75 523.15,253.55 160.27,162.1 234.79,421.34 231.44,644.9zm-1280.6 433.23c100.37,62.97 216.09,94.45 347.16,94.45 121.91,0 224.17,-38.18 306.79,-114.55 139.66,-129.11 155.57,-308.97 145.02,-487.15 -32.26,-216.81 -142.68,-351.28 -331.24,-403.42 -142.35,-39.35 -309.81,-21.6 -451.15,27.97 -8.62,2.9 -14.63,11.16 -14.72,20.48l-1.86 862.22zm798.97 -507.25l5.86 64.81c0.13,1.14 0.47,2.2 0.98,3.17 -0.51,-0.97 -0.83,-2.05 -0.96,-3.2l-5.88 -64.78z"/>
   <path class="fil0" d="M16847.62 18728.77c1.46,1.44 3.44,2.25 5.51,2.25 4.32,0 7.83,-3.48 7.87,-7.79l0.01 -717.57c-0.01,-15.74 12.74,-28.49 28.46,-28.49l373.96 0.02c12.62,0.01 23.45,9.02 25.78,21.42 1.23,6.15 1.85,13.7 1.85,22.63 0.22,73.91 0.34,528.79 0.34,1364.66 0,138.33 -7.99,238.19 -23.95,299.6 -75.19,289.71 -296.08,477.6 -584.28,540.57 -239.31,52.08 -488.16,25.79 -697.16,-98.8 -199.95,-119.24 -333.92,-345.98 -360.38,-575.91 -11.05,-96.57 -11.44,-187.9 -1.17,-273.97 47.72,-399.91 340.45,-684.6 749.23,-706.03 158.26,-8.21 358.21,39.85 473.93,157.41zm1666.77 1315.77c-13.57,11.72 -22.95,35.17 -42.87,54.59 -186.23,179.36 -504.57,189.24 -724.29,81.72 -166.57,-81.38 -252.25,-216.41 -257.05,-405.09 -13.9,-557.99 625.81,-574.74 1011.14,-508.59 0.08,-0.01 0.14,0 0.2,0.01 3.77,0.46 7.19,-2.14 7.64,-5.81 0.01,-0.1 0.02,-0.19 0.03,-0.29 4.02,-43.72 2.01,-88.69 -6.02,-134.91 -25.63,-148.88 -181.03,-210.51 -319.02,-204.65 -119.57,5.03 -220.22,37.01 -306.46,106.34 -6.37,5.03 -27.86,23.39 -64.48,55.1 -7.83,7.08 -20.18,6.79 -27.96,-0.85l-209.5 -209.49c-11.69,-11.46 -12.41,-30.39 -1.4,-42.81 78.41,-86.9 171.77,-150.83 280.06,-191.8 238.36,-90.43 476.04,-91.72 713.06,-3.85 183.04,67.82 302.44,231.26 339.28,418.82 9.94,50.35 14.74,119.41 14.41,207.16 -0.67,176.06 -0.56,485.31 0.33,927.75 -0.01,0.03 -0.01,0.09 -0.01,0.15 0,14.98 -12.15,27.13 -27.13,27.13 -0.17,0 -0.34,0 -0.5,0 -85.62,-1.11 -193.58,-0.71 -323.87,1.19 -34.38,0.56 -48.84,-18.09 -43.37,-55.94 2.9,-20.43 2.51,-57.55 -1.17,-111.36 -0.3,-3.49 -3.2,-6.17 -6.69,-6.17 -1.61,0 -3.16,0.58 -4.38,1.63l0.02 0.02zm-9.38 -511.1c-165.79,-19.09 -611.08,-71.84 -606.72,208.83 3.01,194.92 240.31,214.85 376.96,181.36 121.74,-29.98 228.25,-115.89 236.12,-245 3.13,-52.92 3.63,-98.52 1.51,-136.82 -0.23,-4.26 -3.5,-7.83 -7.76,-8.37l-0.11 0zm-3100.6 671.7c-8.37,4.91 -17.97,7.48 -28.8,7.7 -121.14,2.23 -240.09,3.52 -356.87,3.85 -19.52,-0.02 -35.34,-15.84 -35.34,-35.35 0.45,-312.14 0.84,-598.5 1.18,-859.07 0.16,-223.07 -81.89,-374.12 -322.04,-374.79 -181.36,-0.5 -299.42,138.66 -302.1,313.66 -4.13,258.34 -4.24,564.52 -0.34,918.54 0,0.14 0,0.31 0,0.48 0,19.33 -15.67,35 -35,35 0,0 0,0 0,0l-361.05 0.02c-0.01,-0.01 -0.01,-0.01 -0.01,-0.01 -15.75,0 -28.55,-12.72 -28.64,-28.47 -1.55,-321.19 -1.66,-630.04 -0.32,-926.56 1,-263.76 112.54,-485.31 359.88,-602.2 200.85,-95.01 412.97,-113.1 636.36,-54.26 309.81,81.72 478.11,336.94 480.29,652.44 2.9,444.45 2.96,756.54 0.17,936.29 0.01,5.19 -2.78,10.06 -7.31,12.67l-0.06 0.06zm-2904.5 -658.3c19.76,179.35 176.84,316.84 350,342.63 186.11,27.8 344.98,-27.24 476.61,-165.12 3.21,-3.41 7.7,-5.34 12.38,-5.34 3.83,0 7.54,1.29 10.55,3.65l256.9 198.12c4.3,3.31 6.83,8.46 6.83,13.91 0,3.79 -1.23,7.49 -3.5,10.52 -119.39,159.62 -319,260.6 -515.1,291.58 -300.6,47.72 -623.47,-28.3 -826.1,-260.07 -217.54,-248.52 -240.82,-620.12 -122.42,-927.92 24.12,-62.63 67.04,-130.35 128.78,-203.14 184.04,-217.37 482.13,-303.61 757.94,-265.76 361.89,49.73 607.23,323.54 652.44,680.07 7.48,58.72 9.6,143.13 6.37,253.21 -0.38,13.12 -11.14,23.59 -24.29,23.59 0,0 -0.01,0 -0.01,0l-1158.17 0.02c-0.02,-0.02 -0.04,-0.02 -0.05,-0.02 -5.09,0 -9.21,4.12 -9.21,9.21 0,0.28 0.01,0.56 0.04,0.84l0.01 0.02zm768.83 -295.41c0,-0.02 0.01,-0.02 0.02,-0.02 3.7,0 6.7,-3 6.7,-6.7 0,-0.22 -0.01,-0.45 -0.03,-0.67 -16.18,-138.98 -86.12,-235.43 -209.82,-289.36 -88.2,-38.52 -175.06,-46.61 -260.58,-24.28 -161.21,42.09 -260.63,144.8 -298.25,308.13 -0.19,0.75 -0.28,1.54 -0.28,2.33 0,5.8 4.68,10.51 10.48,10.55l751.76 0.02zm-1807.27 765.31c-0.17,-1.46 -1.39,-2.55 -2.84,-2.55 -0.76,0 -1.49,0.31 -2.03,0.85 -182.69,209.52 -496.52,243.85 -744.37,146.89 -386.34,-151.05 -544.76,-526.84 -480.79,-923.73 49.07,-305.46 258.4,-546.1 550.79,-628.49 272.41,-76.92 524.67,-44.77 756.77,96.46 150.27,91.66 252.82,224.29 307.63,397.89 19.65,62.19 29.76,157.08 30.32,284.69 2.34,467.89 1.06,737.46 -3.86,808.68 -41.36,598.02 -623.3,788.76 -1133.06,654.29 -153.84,-40.64 -285.58,-119.35 -395.21,-236.13 -11.65,-12.55 -11.35,-32.02 0.68,-44.06l231.42 -231.42c3.28,-3.29 7.75,-5.13 12.39,-5.13 4.89,0 9.56,2.04 12.88,5.62 93.13,101.16 202.32,164.3 344.66,189.58 203.8,36.34 446.63,-37.67 497.7,-264.25 17.42,-77.82 23.06,-160.88 16.92,-249.19zm-817.9 -607.23c6.7,251.54 159.43,449.65 426.03,442.61 266.77,-7.03 408.78,-213.01 402.08,-464.54 -6.7,-251.37 -159.42,-449.48 -426.03,-442.44 -266.6,7.03 -408.61,213.01 -402.08,464.37zm-1563.44 -1420.76c61.18,-0.11 122.25,0.22 183.2,1 44.21,0.67 72.85,17.76 85.91,51.25 254.99,654.11 484.64,1241.41 688.95,1761.89 53.37,135.98 105.61,271.35 156.75,406.1 1.06,2.7 1.6,5.6 1.6,8.52 0,13.13 -10.65,23.78 -23.78,23.78 -0.03,0 -0.05,0 -0.08,0 -186.23,-0.43 -316.58,0.41 -391.05,2.53 -35.16,1.01 -57.6,-11.67 -67.32,-38.01 -79.15,-213.91 -131.01,-356.48 -155.57,-427.71 -2.09,-6.26 -7.8,-10.57 -14.38,-10.91 -11.51,-0.65 -165.2,-0.7 -461.05,-0.14 -295.85,0.56 -449.59,1.17 -461.2,1.84 -6.5,0.38 -12.12,4.69 -14.22,10.87 -24.35,71.35 -75.71,214.15 -154.08,428.39 -9.6,26.35 -31.98,39.08 -67.15,38.18 -74.47,-1.9 -204.81,-2.29 -391.03,-1.17 -0.04,-0.02 -0.1,-0.02 -0.16,-0.02 -13.13,0 -23.78,-10.65 -23.78,-23.78 0,-2.86 0.52,-5.7 1.52,-8.37 50.67,-134.96 102.47,-270.49 155.39,-406.59 202.41,-521.26 429.93,-1109.39 682.58,-1764.4 12.95,-33.6 41.53,-50.79 85.74,-51.58 60.96,-1 122.03,-1.56 183.21,-1.67zm-329.91 1385.6c-0.17,0.57 -0.27,1.19 -0.27,1.82 0,3.22 2.6,5.84 5.82,5.86l648.57 -2.16c0.03,-0.02 0.03,-0.02 0.04,-0.02 3.24,0 5.86,-2.62 5.86,-5.86 0,-0.68 -0.12,-1.37 -0.35,-2.01l-327.59 -893.57c-0.88,-2.2 -3.02,-3.62 -5.38,-3.62 -2.43,0 -4.61,1.5 -5.48,3.77l-321.22 895.79zm7298.26 29.81c-1.68,250.69 142.34,462.53 409.78,464.21 267.44,1.67 414.14,-208.16 415.81,-458.86 1.68,-250.69 -142.34,-462.53 -409.78,-464.21 -267.44,-1.67 -414.14,208.16 -415.81,458.86z"/>
  </g>
 </g>
</svg>
